<?xml version="1.0" encoding="UTF-8"?>
<svg xmlns="http://www.w3.org/2000/svg" xmlns:xlink="http://www.w3.org/1999/xlink" width="128px" height="128px" viewBox="0 0 128 128" version="1.1">
<defs>
<linearGradient id="linear0" gradientUnits="userSpaceOnUse" x1="17" y1="188" x2="21" y2="188" gradientTransform="matrix(1,0,0,1,0,-172)">
<stop offset="0" style="stop-color:rgb(36.862746%,36.078432%,39.215687%);stop-opacity:1;"/>
<stop offset="0.5" style="stop-color:rgb(60.392159%,60.000002%,58.823532%);stop-opacity:1;"/>
<stop offset="1" style="stop-color:rgb(36.862746%,36.078432%,39.215687%);stop-opacity:1;"/>
</linearGradient>
<linearGradient id="linear1" gradientUnits="userSpaceOnUse" x1="16" y1="199.5" x2="22" y2="199.5" gradientTransform="matrix(1,0,0,1,0,-172)">
<stop offset="0" style="stop-color:rgb(36.862746%,36.078432%,39.215687%);stop-opacity:1;"/>
<stop offset="0.5" style="stop-color:rgb(60.392159%,60.000002%,58.823532%);stop-opacity:1;"/>
<stop offset="1" style="stop-color:rgb(36.862746%,36.078432%,39.215687%);stop-opacity:1;"/>
</linearGradient>
<linearGradient id="linear2" gradientUnits="userSpaceOnUse" x1="40" y1="276" x2="40" y2="260" gradientTransform="matrix(1,0,0,1.25,-0.000000503448,-239)">
<stop offset="0" style="stop-color:rgb(100%,100%,100%);stop-opacity:0;"/>
<stop offset="0.2" style="stop-color:rgb(100%,100%,100%);stop-opacity:0.452599;"/>
<stop offset="1" style="stop-color:rgb(100%,100%,100%);stop-opacity:0;"/>
</linearGradient>
<filter id="alpha" filterUnits="objectBoundingBox" x="0%" y="0%" width="100%" height="100%">
  <feColorMatrix type="matrix" in="SourceGraphic" values="0 0 0 0 1 0 0 0 0 1 0 0 0 0 1 0 0 0 1 0"/>
</filter>
<mask id="mask0">
  <g filter="url(#alpha)">
<rect x="0" y="0" width="128" height="128" style="fill:rgb(0%,0%,0%);fill-opacity:0.4;stroke:none;"/>
  </g>
</mask>
<clipPath id="clip1">
  <rect x="0" y="0" width="192" height="152"/>
</clipPath>
<g id="surface25413" clip-path="url(#clip1)">
<path style=" stroke:none;fill-rule:nonzero;fill:rgb(0%,0%,0%);fill-opacity:1;" d="M 34 72 L 102 72 L 102 74 L 34 74 Z M 34 72 "/>
</g>
<mask id="mask1">
  <g filter="url(#alpha)">
<rect x="0" y="0" width="128" height="128" style="fill:rgb(0%,0%,0%);fill-opacity:0.4;stroke:none;"/>
  </g>
</mask>
<clipPath id="clip2">
  <rect x="0" y="0" width="192" height="152"/>
</clipPath>
<g id="surface25416" clip-path="url(#clip2)">
<path style=" stroke:none;fill-rule:nonzero;fill:rgb(0%,0%,0%);fill-opacity:1;" d="M 34 68 L 102 68 L 102 70 L 34 70 Z M 34 68 "/>
</g>
<mask id="mask2">
  <g filter="url(#alpha)">
<rect x="0" y="0" width="128" height="128" style="fill:rgb(0%,0%,0%);fill-opacity:0.4;stroke:none;"/>
  </g>
</mask>
<clipPath id="clip3">
  <rect x="0" y="0" width="192" height="152"/>
</clipPath>
<g id="surface25419" clip-path="url(#clip3)">
<path style=" stroke:none;fill-rule:nonzero;fill:rgb(0%,0%,0%);fill-opacity:1;" d="M 34 76 L 102 76 L 102 78 L 34 78 Z M 34 76 "/>
</g>
<mask id="mask3">
  <g filter="url(#alpha)">
<rect x="0" y="0" width="128" height="128" style="fill:rgb(0%,0%,0%);fill-opacity:0.3;stroke:none;"/>
  </g>
</mask>
<clipPath id="clip4">
  <rect x="0" y="0" width="192" height="152"/>
</clipPath>
<g id="surface25422" clip-path="url(#clip4)">
<path style="fill-rule:nonzero;fill:rgb(0%,0%,0%);fill-opacity:1;stroke-width:3;stroke-linecap:butt;stroke-linejoin:miter;stroke:rgb(0%,0%,0%);stroke-opacity:1;stroke-miterlimit:4;" d="M 30 258 C 31.105469 258 32 258.894531 32 260 L 32 274 C 32 275.105469 31.105469 276 30 276 C 28.894531 276 28 275.105469 28 274 L 28 260 C 28 258.894531 28.894531 258 30 258 Z M 30 258 " transform="matrix(1,0,0,1,4,-158)"/>
<path style="fill-rule:nonzero;fill:rgb(0%,0%,0%);fill-opacity:1;stroke-width:3;stroke-linecap:butt;stroke-linejoin:miter;stroke:rgb(0%,0%,0%);stroke-opacity:1;stroke-miterlimit:4;" d="M 42 258 C 43.105469 258 44 258.894531 44 260 L 44 274 C 44 275.105469 43.105469 276 42 276 C 40.894531 276 40 275.105469 40 274 L 40 260 C 40 258.894531 40.894531 258 42 258 Z M 42 258 " transform="matrix(1,0,0,1,4,-158)"/>
<path style="fill-rule:nonzero;fill:rgb(0%,0%,0%);fill-opacity:1;stroke-width:3;stroke-linecap:butt;stroke-linejoin:miter;stroke:rgb(0%,0%,0%);stroke-opacity:1;stroke-miterlimit:4;" d="M 54 258 C 55.105469 258 56 258.894531 56 260 L 56 274 C 56 275.105469 55.105469 276 54 276 C 52.894531 276 52 275.105469 52 274 L 52 260 C 52 258.894531 52.894531 258 54 258 Z M 54 258 " transform="matrix(1,0,0,1,4,-158)"/>
<path style="fill-rule:nonzero;fill:rgb(0%,0%,0%);fill-opacity:1;stroke-width:3;stroke-linecap:butt;stroke-linejoin:miter;stroke:rgb(0%,0%,0%);stroke-opacity:1;stroke-miterlimit:4;" d="M 66 258 C 67.105469 258 68 258.894531 68 260 L 68 274 C 68 275.105469 67.105469 276 66 276 C 64.894531 276 64 275.105469 64 274 L 64 260 C 64 258.894531 64.894531 258 66 258 Z M 66 258 " transform="matrix(1,0,0,1,4,-158)"/>
<path style="fill-rule:nonzero;fill:rgb(0%,0%,0%);fill-opacity:1;stroke-width:3;stroke-linecap:butt;stroke-linejoin:miter;stroke:rgb(0%,0%,0%);stroke-opacity:1;stroke-miterlimit:4;" d="M 78 258 C 79.105469 258 80 258.894531 80 260 L 80 274 C 80 275.105469 79.105469 276 78 276 C 76.894531 276 76 275.105469 76 274 L 76 260 C 76 258.894531 76.894531 258 78 258 Z M 78 258 " transform="matrix(1,0,0,1,4,-158)"/>
</g>
</defs>
<g id="surface25409">
<path style=" stroke:none;fill-rule:nonzero;fill:url(#linear0);" d="M 19 0 C 20.105469 0 21 0.894531 21 2 L 21 30 C 21 31.105469 20.105469 32 19 32 C 17.894531 32 17 31.105469 17 30 L 17 2 C 17 0.894531 17.894531 0 19 0 Z M 19 0 "/>
<path style=" stroke:none;fill-rule:nonzero;fill:url(#linear1);" d="M 19 19 C 20.65625 19 22 20.34375 22 22 L 22 33 C 22 34.65625 20.65625 36 19 36 C 17.34375 36 16 34.65625 16 33 L 16 22 C 16 20.34375 17.34375 19 19 19 Z M 19 19 "/>
<path style=" stroke:none;fill-rule:nonzero;fill:rgb(87.058824%,86.666667%,85.490197%);fill-opacity:1;" d="M 120 36 L 120 108 C 120 112.417969 116.417969 116 112 116 L 16 116 C 11.582031 116 8 112.417969 8 108 L 8 36 C 8 31.582031 11.582031 28 16 28 L 112 28 C 116.417969 28 120 31.582031 120 36 Z M 120 36 "/>
<path style=" stroke:none;fill-rule:nonzero;fill:rgb(60.392159%,60.000002%,58.823532%);fill-opacity:1;" d="M 8 106 L 120 106 L 120 108 L 8 108 Z M 8 106 "/>
<path style=" stroke:none;fill-rule:nonzero;fill:rgb(92.941177%,20%,23.137255%);fill-opacity:1;" d="M 8 48 L 96 48 L 96 108 L 8 108 Z M 8 48 "/>
<path style=" stroke:none;fill-rule:nonzero;fill:url(#linear2);" d="M 8 86 L 120 86 L 120 106 L 8 106 Z M 8 86 "/>
<use xlink:href="#surface25413" transform="matrix(1,0,0,1,-8,-16)" mask="url(#mask0)"/>
<use xlink:href="#surface25416" transform="matrix(1,0,0,1,-8,-16)" mask="url(#mask1)"/>
<use xlink:href="#surface25419" transform="matrix(1,0,0,1,-8,-16)" mask="url(#mask2)"/>
<path style=" stroke:none;fill-rule:nonzero;fill:rgb(87.058824%,86.666667%,85.490197%);fill-opacity:1;" d="M 46 48 C 46 52.417969 42.417969 56 38 56 C 33.582031 56 30 52.417969 30 48 C 30 43.582031 33.582031 40 38 40 C 42.417969 40 46 43.582031 46 48 Z M 46 48 "/>
<path style=" stroke:none;fill-rule:nonzero;fill:rgb(87.058824%,86.666667%,85.490197%);fill-opacity:1;" d="M 66 48 C 66 52.417969 62.417969 56 58 56 C 53.582031 56 50 52.417969 50 48 C 50 43.582031 53.582031 40 58 40 C 62.417969 40 66 43.582031 66 48 Z M 66 48 "/>
<path style=" stroke:none;fill-rule:nonzero;fill:rgb(60.392159%,60.000002%,58.823532%);fill-opacity:1;" d="M 44 48 C 44 51.3125 41.3125 54 38 54 C 34.6875 54 32 51.3125 32 48 C 32 44.6875 34.6875 42 38 42 C 41.3125 42 44 44.6875 44 48 Z M 44 48 "/>
<path style=" stroke:none;fill-rule:nonzero;fill:rgb(60.392159%,60.000002%,58.823532%);fill-opacity:1;" d="M 64 48 C 64 51.3125 61.3125 54 58 54 C 54.6875 54 52 51.3125 52 48 C 52 44.6875 54.6875 42 58 42 C 61.3125 42 64 44.6875 64 48 Z M 64 48 "/>
<path style=" stroke:none;fill-rule:nonzero;fill:rgb(100%,100%,100%);fill-opacity:1;" d="M 44 46 C 44 49.3125 41.3125 52 38 52 C 34.6875 52 32 49.3125 32 46 C 32 42.6875 34.6875 40 38 40 C 41.3125 40 44 42.6875 44 46 Z M 44 46 "/>
<path style=" stroke:none;fill-rule:nonzero;fill:rgb(100%,100%,100%);fill-opacity:1;" d="M 64 46 C 64 49.3125 61.3125 52 58 52 C 54.6875 52 52 49.3125 52 46 C 52 42.6875 54.6875 40 58 40 C 61.3125 40 64 42.6875 64 46 Z M 64 46 "/>
<use xlink:href="#surface25422" transform="matrix(1,0,0,1,-8,-16)" mask="url(#mask3)"/>
<path style=" stroke:none;fill-rule:nonzero;fill:rgb(65.490198%,92.941177%,47.843137%);fill-opacity:1;" d="M 26 83 C 27.105469 83 28 83.894531 28 85 L 28 99 C 28 100.105469 27.105469 101 26 101 C 24.894531 101 24 100.105469 24 99 L 24 85 C 24 83.894531 24.894531 83 26 83 Z M 26 83 "/>
<path style=" stroke:none;fill-rule:nonzero;fill:rgb(65.490198%,92.941177%,47.843137%);fill-opacity:1;" d="M 38 83 C 39.105469 83 40 83.894531 40 85 L 40 99 C 40 100.105469 39.105469 101 38 101 C 36.894531 101 36 100.105469 36 99 L 36 85 C 36 83.894531 36.894531 83 38 83 Z M 38 83 "/>
<path style=" stroke:none;fill-rule:nonzero;fill:rgb(65.490198%,92.941177%,47.843137%);fill-opacity:1;" d="M 50 83 C 51.105469 83 52 83.894531 52 85 L 52 99 C 52 100.105469 51.105469 101 50 101 C 48.894531 101 48 100.105469 48 99 L 48 85 C 48 83.894531 48.894531 83 50 83 Z M 50 83 "/>
<path style=" stroke:none;fill-rule:nonzero;fill:rgb(65.490198%,92.941177%,47.843137%);fill-opacity:1;" d="M 62 83 C 63.105469 83 64 83.894531 64 85 L 64 99 C 64 100.105469 63.105469 101 62 101 C 60.894531 101 60 100.105469 60 99 L 60 85 C 60 83.894531 60.894531 83 62 83 Z M 62 83 "/>
<path style=" stroke:none;fill-rule:nonzero;fill:rgb(65.490198%,92.941177%,47.843137%);fill-opacity:1;" d="M 74 83 C 75.105469 83 76 83.894531 76 85 L 76 99 C 76 100.105469 75.105469 101 74 101 C 72.894531 101 72 100.105469 72 99 L 72 85 C 72 83.894531 72.894531 83 74 83 Z M 74 83 "/>
<path style=" stroke:none;fill-rule:nonzero;fill:rgb(75.294119%,74.901962%,73.725492%);fill-opacity:1;" d="M 8 108 C 8 112.433594 11.566406 116 16 116 L 112 116 C 116.433594 116 120 112.433594 120 108 Z M 8 108 "/>
<path style=" stroke:none;fill-rule:nonzero;fill:rgb(36.862746%,36.078432%,39.215687%);fill-opacity:1;" d="M 109 38 C 110.65625 38 112 39.34375 112 41 L 112 57 C 112 58.65625 110.65625 60 109 60 C 107.34375 60 106 58.65625 106 57 L 106 41 C 106 39.34375 107.34375 38 109 38 Z M 109 38 "/>
<path style="fill-rule:nonzero;fill:rgb(75.294119%,74.901962%,73.725492%);fill-opacity:1;stroke-width:4;stroke-linecap:butt;stroke-linejoin:miter;stroke:rgb(87.058824%,86.666667%,85.490197%);stroke-opacity:1;stroke-miterlimit:4;" d="M 19 210 C 20.65625 210 22 211.34375 22 213 L 22 229 C 22 230.65625 20.65625 232 19 232 C 17.34375 232 16 230.65625 16 229 L 16 213 C 16 211.34375 17.34375 210 19 210 Z M 19 210 " transform="matrix(1,0,0,1,0,-172)"/>
<path style=" stroke:none;fill-rule:nonzero;fill:rgb(36.862746%,36.078432%,39.215687%);fill-opacity:1;" d="M 19 38 C 20.65625 38 22 39.34375 22 41 L 22 57 C 22 58.65625 20.65625 60 19 60 C 17.34375 60 16 58.65625 16 57 L 16 41 C 16 39.34375 17.34375 38 19 38 Z M 19 38 "/>
<path style=" stroke:none;fill-rule:nonzero;fill:rgb(60.392159%,60.000002%,58.823532%);fill-opacity:1;" d="M 109 36 C 110.65625 36 112 37.34375 112 39 L 112 55 C 112 56.65625 110.65625 58 109 58 C 107.34375 58 106 56.65625 106 55 L 106 39 C 106 37.34375 107.34375 36 109 36 Z M 109 36 "/>
<path style=" stroke:none;fill-rule:nonzero;fill:rgb(60.392159%,60.000002%,58.823532%);fill-opacity:1;" d="M 19 36 C 20.65625 36 22 37.34375 22 39 L 22 55 C 22 56.65625 20.65625 58 19 58 C 17.34375 58 16 56.65625 16 55 L 16 39 C 16 37.34375 17.34375 36 19 36 Z M 19 36 "/>
</g>
</svg>
